<?xml version="1.0" encoding="utf-8"?>
<!-- Generator: Adobe Illustrator 17.0.0, SVG Export Plug-In . SVG Version: 6.00 Build 0)  -->
<!DOCTYPE svg PUBLIC "-//W3C//DTD SVG 1.1//EN" "http://www.w3.org/Graphics/SVG/1.1/DTD/svg11.dtd">
<svg version="1.1" id="Layer_1" xmlns="http://www.w3.org/2000/svg" xmlns:xlink="http://www.w3.org/1999/xlink" x="0px" y="0px"
	 width="200.005px" height="200.932px" viewBox="0 0 200.005 200.932" enable-background="new 0 0 200.005 200.932"
	 xml:space="preserve">
<g>
	<path fill="#C5A764" d="M93.464,47.274C60.068,48.902,33.288,75.87,31.804,109.3c-6.076-0.895-12.435,0.8-14.847,8.043
		c-0.716,2.143-1.062,4.434-1.062,6.734c0,4.664,1.427,9.373,4.111,13.086c3.427,4.733,8.624,7.41,14.704,7.901
		c8.455,26.871,33.64,45.5,61.951,45.5h3.565c28.454,0,53.678-18.754,62.044-45.796c6.053-0.516,11.227-3.197,14.632-7.918
		c2.676-3.706,4.089-8.41,4.089-13.059c0-2.303-0.346-4.597-1.063-6.743c-2.413-7.239-8.782-8.937-14.858-8.034
		c-1.586-32.456-27.019-58.745-59.136-61.56L93.464,47.274z"/>
	<path fill="#E4C77D" d="M99.943,47.369l-6.479-0.095C60.068,48.902,33.288,75.87,31.804,109.3
		c-6.076-0.895-12.435,0.8-14.847,8.043c-0.716,2.143-1.062,4.434-1.062,6.734c0,4.664,1.427,9.373,4.111,13.086
		c3.427,4.733,8.624,7.41,14.704,7.901c8.455,26.871,33.64,45.5,61.951,45.5h3.281V47.369z"/>
	<path fill="#808285" d="M94.282,55c-3.239,6.28-11.096,18.067-23.171,14.617c-1.146-0.33-2.35,0.339-2.683,1.485
		c-0.324,1.154,0.34,2.355,1.491,2.684c14.698,4.196,24.882-9.139,29.106-18.522c0.32,0.007,0.64,0.018,0.972,0.021
		c2.751,7.248-2.238,21.834-4.419,26.905c-0.471,1.096,0.03,2.368,1.134,2.845c1.1,0.479,2.38-0.029,2.851-1.129
		c0.329-0.769,7.656-17.964,4.984-28.586h0.249c3.075,7.528,12.455,27.633,24.845,26.392c1.193-0.115,2.059-1.182,1.939-2.376
		c-0.116-1.185-1.178-2.056-2.369-1.939c-8.017,0.804-15.909-13.345-19.743-22.174l-8.359-17.532L94.282,55z"/>
	<path fill="#C34135" d="M157.47,10.886c-3.082-3.184-7.007-4.814-11.66-4.849c-14.709-0.11-32.222,16.512-34.598,18.831
		c-2.623-3.166-6.207-5.12-10.162-5.12c-3.88,0-7.393,1.882-10.003,4.936c-3-2.902-20.044-18.752-34.404-18.646
		c-4.655,0.034-8.578,1.665-11.664,4.849c-10.643,10.998-5.813,19.139-2.287,25.083c1.421,2.401,2.652,4.475,2.548,6.124
		c-0.078,1.272-0.438,2.92-0.812,4.662c-1.127,5.194-2.523,11.658,1.472,16.273c2.478,2.86,6.68,4.501,12.4,4.871
		c12.491,1.144,29.098-11.758,33.987-15.824c2.44,2.277,5.468,3.645,8.763,3.645c3.367,0,6.458-1.427,8.926-3.799
		c4.651,3.891,21.526,17.137,34.174,15.979c5.724-0.37,9.923-2.011,12.398-4.871c4-4.615,2.602-11.079,1.475-16.273
		c-0.378-1.742-0.737-3.39-0.811-4.662c-0.105-1.649,1.123-3.723,2.547-6.124C163.283,30.025,168.115,21.884,157.47,10.886z"/>
	<path fill="#A68250" d="M111.057,141.099c0,0-11.625-7.701-21.725,1.338C89.333,142.437,98.542,123.043,111.057,141.099z"/>
	<path fill="#C5A764" d="M89.333,142.437c3.539-3.165,7.263-4.275,10.61-4.383v-4.621C93.464,133.764,89.333,142.437,89.333,142.437
		z"/>
	<path fill="#C34135" d="M100.137,173.743c-14.246,0-26.146-12.504-29.097-29.203c7.824,6.004,17.978,9.656,29.097,9.656
		c11.126,0,21.278-3.652,29.098-9.647C126.289,161.246,114.39,173.743,100.137,173.743z"/>
	<path fill="#EC7063" d="M99.943,154.191c-11.045-0.042-21.124-3.682-28.903-9.651c2.936,16.625,14.744,29.083,28.903,29.197
		V154.191z"/>
	<circle fill="#808285" cx="77.169" cy="121.5" r="7.333"/>
	<circle fill="#59595A" cx="121.944" cy="121.5" r="7.334"/>
	<path fill="#EC7063" d="M99.556,19.846c-3.283,0.414-6.237,2.183-8.509,4.838c-3-2.902-20.044-18.752-34.404-18.646
		c-4.655,0.034-8.578,1.665-11.664,4.849c-10.643,10.998-5.813,19.139-2.287,25.083c1.421,2.401,2.652,4.475,2.548,6.124
		c-0.078,1.272-0.438,2.92-0.812,4.662c-1.127,5.194-2.523,11.658,1.472,16.273c2.478,2.86,6.68,4.501,12.4,4.871
		c12.491,1.144,29.098-11.758,33.987-15.824c2.065,1.93,4.556,3.193,7.269,3.539V19.846z"/>
	<path fill="#C34135" d="M81.215,53.242c-2.827,1.515-6.351,0.453-7.871-2.376c-1.515-2.831-0.452-6.354,2.38-7.871
		c2.826-1.517,14.809-1.348,14.809-1.348S84.043,51.723,81.215,53.242z"/>
	<path fill="#C34135" d="M73.7,36.582c-3.512-1.056-5.498-4.758-4.442-8.268c1.058-3.511,4.76-5.5,8.27-4.441
		c3.511,1.056,13.056,10.86,13.056,10.86S77.21,37.639,73.7,36.582z"/>
	<path fill="#EC7063" d="M131.176,50.866c-1.517,2.829-5.041,3.891-7.87,2.376c-2.829-1.519-9.317-11.595-9.317-11.595
		s11.982-0.169,14.811,1.348C131.628,44.511,132.691,48.035,131.176,50.866z"/>
	<path fill="#EC7063" d="M130.82,36.582c-3.512,1.058-16.88-1.849-16.88-1.849s9.541-9.805,13.054-10.86
		c3.51-1.059,7.212,0.931,8.27,4.441C136.32,31.824,134.331,35.526,130.82,36.582z"/>
</g>
</svg>
