<?xml version="1.0" encoding="utf-8"?>
<!-- Generator: Adobe Illustrator 17.0.0, SVG Export Plug-In . SVG Version: 6.00 Build 0)  -->
<!DOCTYPE svg PUBLIC "-//W3C//DTD SVG 1.1//EN" "http://www.w3.org/Graphics/SVG/1.1/DTD/svg11.dtd">
<svg version="1.1" id="Layer_1" xmlns="http://www.w3.org/2000/svg" xmlns:xlink="http://www.w3.org/1999/xlink" x="0px" y="0px"
	 width="200.005px" height="200.932px" viewBox="0 0 200.005 200.932" enable-background="new 0 0 200.005 200.932"
	 xml:space="preserve">
<g>
	<path fill="#808285" d="M113.413,39.755c3.364-6.526,11.52-18.769,24.057-15.185c1.191,0.342,2.442-0.352,2.786-1.543
		c0.339-1.199-0.352-2.446-1.548-2.787c-15.261-4.36-25.835,9.493-30.22,19.239c-0.333-0.007-0.665-0.018-1.009-0.022
		c-2.856-7.53,2.323-22.682,4.589-27.948c0.489-1.14-0.032-2.461-1.178-2.956c-1.14-0.498-2.47,0.03-2.959,1.173
		c-0.343,0.799-7.953,18.661-5.175,29.695h-0.26c-3.192-7.821-12.932-28.705-25.794-27.415c-1.241,0.118-2.14,1.228-2.016,2.467
		c0.12,1.232,1.224,2.137,2.462,2.016c8.323-0.834,16.517,13.861,20.498,23.035l8.679,18.21L113.413,39.755z"/>
	<path fill="#C5A764" d="M95.144,40.373c-34.673,1.691-62.479,29.706-64.021,64.433c-6.309-0.93-12.911,0.831-15.414,8.355
		c-0.744,2.227-1.103,4.606-1.103,6.996c0,4.846,1.482,9.737,4.271,13.593c3.555,4.917,8.954,7.698,15.265,8.209
		c8.779,27.911,34.929,47.263,64.323,47.263h3.703c29.543,0,55.733-19.481,64.418-47.572c6.286-0.536,11.657-3.323,15.192-8.225
		c2.778-3.851,4.247-8.735,4.247-13.566c0-2.39-0.36-4.776-1.103-7.003c-2.506-7.52-9.12-9.284-15.428-8.347
		c-1.645-33.715-28.053-61.024-61.399-63.947L95.144,40.373z"/>
	<path fill="#E4C77D" d="M101.871,40.471l-6.727-0.098c-34.673,1.691-62.479,29.706-64.021,64.433
		c-6.309-0.93-12.911,0.831-15.414,8.355c-0.744,2.227-1.103,4.606-1.103,6.996c0,4.846,1.482,9.737,4.271,13.593
		c3.555,4.917,8.954,7.698,15.265,8.209c8.779,27.911,34.929,47.263,64.323,47.263h3.407V40.471z"/>
	<path fill="#A68250" d="M113.412,137.838c0,0-12.071-8.001-22.555,1.39C90.857,139.229,100.416,119.083,113.412,137.838z"/>
	<path fill="#C5A764" d="M90.857,139.229c3.673-3.29,7.539-4.441,11.014-4.554v-4.802C95.143,130.219,90.857,139.229,90.857,139.229
		z"/>
	<path fill="#C34135" d="M102.073,171.747c-14.791,0-27.147-12.987-30.21-30.335c8.125,6.238,18.665,10.031,30.21,10.031
		c11.552,0,22.093-3.793,30.21-10.023C129.227,158.765,116.873,171.747,102.073,171.747z"/>
	<path fill="#EC7063" d="M101.871,151.439c-11.466-0.043-21.931-3.826-30.009-10.027c3.049,17.269,15.308,30.212,30.009,30.33
		V151.439z"/>
	<path fill="#D7D6D8" d="M97.229,155.538v3.281c0,1.616,1.388,2.921,3.108,2.921h2.33c1.713,0,3.102-1.305,3.102-2.921v-3.281
		c0-1.617-1.388-2.92-3.102-2.92h-2.33C98.617,152.619,97.229,153.921,97.229,155.538z"/>
	<circle fill="#808285" cx="78.226" cy="117.478" r="7.614"/>
	<circle fill="#59595A" cx="124.715" cy="117.478" r="7.614"/>
</g>
</svg>
