<?xml version="1.0" encoding="utf-8"?>
<!-- Generator: Adobe Illustrator 19.0.0, SVG Export Plug-In . SVG Version: 6.00 Build 0)  -->
<svg version="1.1" id="Layer_1" xmlns="http://www.w3.org/2000/svg" xmlns:xlink="http://www.w3.org/1999/xlink" x="0px" y="0px"
	 viewBox="0 0 218 162" style="enable-background:new 0 0 218 162;" xml:space="preserve">
<style type="text/css">
	.st0{fill:#F9F9F9;}
</style>
<path id="XMLID_31_" class="st0" d="M111,33.1c5.1,2.3,6.9-1.3,8.7-6.6c2.6-7.8,11.5-11.8,18.6-11.2c8.3,0.7,16.3,7.4,18.1,14.8
	c2.8,11.4-4.7,22.6-16.3,24.2c-2.5,0.3-2.5,1.7-2.5,3.3c0.1,5.6-0.5,10.8-3.1,16.1c-1.3,2.7-3.6,4.2-5.3,5.9c-2.8,2.8-2.6,5-1.2,7.8
	c2.8,5.7,5,11.9,4.5,18.1c-0.8,8.4-3.2,16.2-8.4,23.5c-5.5,7.6-12.8,11.8-20.7,14.3C91,147.2,79.1,143.8,69,136
	c-15.8-12.2-19.1-34.3-10.4-49.7c4.9-8.7,11.7-15.1,21.1-18.1c3.7-1.1,3.8-2.8,3.3-5.4c-3-14,10.5-28.4,21.3-29.7
	C106.1,33,107.9,33.1,111,33.1z M93.4,134c2-0.5,4.4,0.1,6.9-0.6c20-5.6,28.2-27.6,16.4-46.1c-4.6-7.2-4.7-7.3,2.5-12
	c7.4-4.8,8.2-11.8,7.8-19.6c-0.4-7.7-5.1-10.9-12-12.2c-0.1,0-0.3-0.2-0.4-0.3c-10-2.8-21.4,5.7-21.7,16.2c-0.1,3.5,0.7,6.7,1.8,10
	c1.1,3.5,0.9,6-4,6.7c-7.5,1-14.4,3.1-19.7,9.7c-4.8,6-7.8,12.8-7.5,19.9C64.2,122.1,76.5,134.6,93.4,134z M134.2,44.3
	c8.5,0,12.8-3,12.8-9.1c0-5.5-3.9-9.6-9.2-9.6c-6.3-0.1-10.3,3.7-10.3,9.6C127.5,44.3,127.5,44.3,134.2,44.3z"/>
</svg>
