<?xml version="1.0" encoding="utf-8"?>
<svg version="1.1" id="bee" xmlns="http://www.w3.org/2000/svg" xmlns:xlink="http://www.w3.org/1999/xlink" x="0px"
	 y="0px" viewBox="0 0 500 500" style="enable-background:new 0 0 500 500;" xml:space="preserve">
<style type="text/css">
	.st0{fill:#342F29;}
	.st1{fill:#F3C908;}
	.st2{fill:#FBFBFB;}
</style>
<path id="XMLID_72_" class="st0" d="M254.7,481C127.2,481.3,19.5,378.3,18.5,244.6c-1-125,103.1-232.7,230.6-235.2
	C376.3,6.7,486,111.2,488.4,237.1C491,371.7,388.8,478.4,254.7,481z M251.2,29.2C132.5,30.6,36.4,128.3,37.7,247.1
	C39,367,137.9,465.9,263.2,460.9c108.1-4.3,205.5-91.7,205.6-216C469,123.1,370.1,28,251.2,29.2z"/>
<path id="XMLID_69_" class="st1" d="M251.2,29.2C370.1,28,469,123.1,468.9,244.8c-0.2,124.3-97.6,211.7-205.6,216
	C137.9,465.9,39,367,37.7,247.1C36.4,128.3,132.5,30.6,251.2,29.2z M133.2,162.9c-37-0.4-50.6,12-51.9,38.4
	c-0.4,7.5,0.1,15.2,1.7,22.5c9.4,42.8,34.8,74.4,69.7,99.3c4.7,3.3,10.4,5.1,10.4,12.9c0,22.1,12.5,39.4,24.1,56.5
	c7.7,11.3,18.4,20.7,31.5,26.4c61,26.3,109.9-17.7,122.4-72.9c2.6-11.7,7.2-18.9,16.5-25.5c35.6-25.3,58.7-59.1,67.6-102.3
	c6.1-29.4-10.2-56.6-36.2-57.2c-15.1-0.3-29.6,4.8-42.3,13.5c-15.4,10.5-30.6,21.1-41.8,36.6c-2,2.8-5.7,10-11.5,4.8
	c-6.6-5.9,2-8,4.3-10.8c16.1-19.1,21.1-48.3,8.5-69c-7.9-13.1-7.6-20.4,7.6-24.8c3.9-1.1,7.7-3.4,7.1-7.5c-0.7-4.9-4.9-8.2-9.5-10.1
	c-3.9-1.6-7.5,0.2-10.2,3.1c-1.4,1.5-2.6,3.6-2.8,5.6c-1.6,13.8-8.6,13-19.1,8.6c-15.4-6.6-31.2-7.2-46.7,0.8
	c-9.6,4.9-16.4,4-18.1-8.7c-0.7-5.4-3.8-10.6-10.8-9.7c-4.4,0.6-8.2,2.7-9.1,7.8c-1.1,6.7,2.7,9.9,8.3,11.9
	c10,3.7,11.3,9.3,5.8,18.7c-15,25.7-13.1,50.3,7.3,72.8c2.5,2.7,8.5,5.4,1.5,9.7c-4.4,2.7-8.8,7.1-13.9,1.3
	c-5.3-6.1-10.2-12.6-15.8-18.4C169.9,178.7,149.7,164.2,133.2,162.9z"/>
<path id="XMLID_60_" class="st0" d="M133.2,162.9c16.5,1.4,36.7,15.8,54.7,34.3c5.6,5.8,10.5,12.3,15.8,18.4
	c5.1,5.8,9.5,1.4,13.9-1.3c7-4.3,1-6.9-1.5-9.7c-20.4-22.5-22.3-47-7.3-72.8c5.5-9.4,4.2-15-5.8-18.7c-5.6-2.1-9.4-5.3-8.3-11.9
	c0.9-5.1,4.6-7.2,9.1-7.8c7-0.9,10,4.3,10.8,9.7c1.7,12.7,8.5,13.7,18.1,8.7c15.5-8,31.4-7.3,46.7-0.8c10.5,4.5,17.5,5.3,19.1-8.6
	c0.2-2,1.4-4.1,2.8-5.6c2.7-2.9,6.3-4.7,10.2-3.1c4.6,1.9,8.7,5.2,9.5,10.1c0.6,4.1-3.2,6.4-7.1,7.5c-15.3,4.4-15.5,11.7-7.6,24.8
	c12.6,20.8,7.6,49.9-8.5,69c-2.3,2.8-10.8,4.8-4.3,10.8c5.8,5.2,9.5-2,11.5-4.8c11.2-15.5,26.4-26.1,41.8-36.6
	c12.8-8.7,27.2-13.9,42.3-13.5c26,0.6,42.3,27.7,36.2,57.2c-8.9,43.2-32,77-67.6,102.3c-9.3,6.6-13.8,13.7-16.5,25.5
	c-12.4,55.2-61.3,99.3-122.4,72.9c-13.1-5.7-23.8-15.1-31.5-26.4c-11.6-17-24.1-34.4-24.1-56.5c0-7.7-5.7-9.6-10.4-12.9
	c-35-24.9-60.4-56.5-69.7-99.3c-1.6-7.3-2.1-15-1.7-22.5C82.6,174.9,96.2,162.5,133.2,162.9z M345.9,309.5
	c34.7-26.9,58.9-56.7,63.6-98.3c3.3-29.1-14.2-40.9-41.5-29.8c-21.7,8.9-37.3,25.1-51.5,42.9c-2.9,3.6-4.5,7.2-0.5,11.4
	C334.7,255.3,341.4,280.2,345.9,309.5z M97.4,215.2c3.9,32.3,25.1,63,55.6,88.1c6.3,5.2,9.2,2.9,10.1-4.7
	c2.7-23.6,12.1-44.5,27-62.8c3.4-4.2,3.8-7.2,0.6-11.2c-16-19.9-33.6-37.9-59.1-45.3C109.5,173,96.3,183.8,97.4,215.2z M257.2,205.7
	c22.1,0.6,40.5-17.4,41.3-40.4c0.8-23.5-17.3-43.5-39.9-44.3c-23.3-0.9-43.6,18.4-44.3,42C213.6,186.6,232.2,205,257.2,205.7z
	 M328.1,300.7c0.3-20.5-4.5-24.5-24.6-21.4c-33.3,5.1-66.6,4.7-99.9,0.4c-21.5-2.8-22-2.8-25.9,18.6c-1.5,8.3-0.5,11.6,9.8,9.8
	c43.8-7.8,87.9-8.4,131.7,0.1C326.5,309.6,329.7,308.4,328.1,300.7z M179,332.2c5.5,30.7,2.4,31.5,34.1,26.4
	c29-4.6,59.1-4.2,88.4,1.2c18.9,3.4,21.2,2.5,25.5-15.8c2-8.5,2.6-14.8-10.3-12.1c-28,5.8-56.6,4.4-85,4.7
	C214,336.8,196.9,329.4,179,332.2z M192.5,260.3c41.9-7.2,80.3-5.9,121.4-0.5c-13.8-24.3-32.5-37.4-57.5-38.7
	C228.8,219.7,208.7,233.5,192.5,260.3z M306,381.7c-35.2,3.9-69.9,3-108.8-1.7c15.5,19.6,31.9,30.6,53.4,31.4
	C274,412.2,292.7,402.1,306,381.7z"/>
<path id="XMLID_59_" class="st2" d="M345.9,309.5c-4.6-29.3-11.2-54.1-29.9-73.8c-4-4.2-2.4-7.7,0.5-11.4
	c14.2-17.8,29.8-34,51.5-42.9c27.2-11.2,44.7,0.6,41.5,29.8C404.9,252.8,380.7,282.6,345.9,309.5z"/>
<path id="XMLID_58_" class="st2" d="M97.4,215.2c-1.1-31.5,12.1-42.3,34.2-35.9c25.5,7.4,43,25.4,59.1,45.3c3.3,4,2.8,7-0.6,11.2
	c-14.9,18.3-24.2,39.2-27,62.8c-0.9,7.6-3.9,9.8-10.1,4.7C122.5,278.2,101.3,247.6,97.4,215.2z"/>
<path id="XMLID_53_" class="st2" d="M257.2,205.7c-25-0.6-43.6-19.1-42.9-42.7c0.7-23.7,20.9-42.9,44.3-42
	c22.7,0.8,40.7,20.9,39.9,44.3C297.7,188.3,279.3,206.3,257.2,205.7z M256.3,190.6c12.3-1.2,21.2-6.1,25-17.9c1-3.2,1.8-6.6-2.2-8.1
	c-2.9-1.1-4.5,0.9-6.4,3.1c-14.8,17.4-16.9,17.3-32.4,0.1c-2.1-2.4-4.3-5.8-7.8-3.3c-3.1,2.2-1.9,6.3-0.8,9
	C236.5,184.3,245.1,189.9,256.3,190.6z M276.6,144.4c-0.9-4.5-3.2-7.9-8.3-7.5c-4,0.4-7.1,2.9-6.6,7.2c0.5,4.3,2.4,8.1,8,7.6
	C274.4,151.3,275.9,148.3,276.6,144.4z M241,151.5c4.1-0.5,7.2-2.3,7.3-7c0.1-4.4-2.6-7.5-6.6-7.8c-4.8-0.3-8.2,2.3-8,7.8
	C233.8,149.2,236.8,151,241,151.5z"/>
<path id="XMLID_52_" class="st2" d="M328.1,300.7c1.6,7.7-1.6,8.9-8.9,7.5c-43.9-8.5-87.9-7.9-131.7-0.1c-10.2,1.8-11.3-1.5-9.8-9.8
	c3.9-21.3,4.4-21.3,25.9-18.6c33.3,4.3,66.6,4.7,99.9-0.4C323.7,276.2,328.4,280.2,328.1,300.7z"/>
<path id="XMLID_51_" class="st2" d="M179,332.2c18-2.8,35,4.6,52.7,4.4c28.4-0.3,57,1.1,85-4.7c12.9-2.7,12.3,3.6,10.3,12.1
	c-4.3,18.3-6.7,19.2-25.5,15.8c-29.3-5.4-59.4-5.8-88.4-1.2C181.3,363.7,184.5,363,179,332.2z"/>
<path id="XMLID_50_" class="st2" d="M192.5,260.3c16.2-26.8,36.3-40.6,63.8-39.2c25,1.2,43.7,14.4,57.5,38.7
	C272.8,254.4,234.4,253.2,192.5,260.3z"/>
<path id="XMLID_49_" class="st2" d="M306,381.7c-13.3,20.3-32,30.4-55.4,29.6c-21.5-0.7-37.9-11.7-53.4-31.4
	C236.1,384.7,270.8,385.6,306,381.7z"/>
<path id="XMLID_48_" class="st0" d="M256.3,190.6c-11.2-0.7-19.8-6.3-24.5-17.1c-1.2-2.7-2.3-6.8,0.8-9c3.5-2.5,5.6,1,7.8,3.3
	c15.5,17.2,17.6,17.3,32.4-0.1c1.9-2.3,3.5-4.3,6.4-3.1c4,1.6,3.2,4.9,2.2,8.1C277.4,184.5,268.6,189.4,256.3,190.6z"/>
<path id="XMLID_47_" class="st0" d="M276.6,144.4c-0.7,4-2.2,6.9-6.9,7.3c-5.7,0.5-7.5-3.3-8-7.6c-0.5-4.4,2.6-6.9,6.6-7.2
	C273.4,136.4,275.7,139.8,276.6,144.4z"/>
<path id="XMLID_46_" class="st0" d="M241,151.5c-4.2-0.5-7.2-2.3-7.4-7c-0.2-5.5,3.3-8.1,8-7.8c4,0.3,6.7,3.4,6.6,7.8
	C248.3,149.2,245.2,151,241,151.5z"/>
<path id="XMLID_2_" class="st0" d="M256.3,190.6c-11.2-0.7-19.8-6.3-24.5-17.1c-1.2-2.7-2.3-6.8,0.8-9c3.5-2.5,5.6,1,7.8,3.3
	c15.5,17.2,17.6,17.3,32.4-0.1c1.9-2.3,3.5-4.3,6.4-3.1c4,1.6,3.2,4.9,2.2,8.1C277.4,184.5,268.6,189.4,256.3,190.6z"/>
</svg>
